# xmcd
#
# Track frame offsets:
#	183
#	13574
#	27559
#	42731
#	53402
#	66512
#	85160
#	107396
#	121305
#	137098
#	148613
#	162974
#	172808
#	180962
#	196004
#	224537
#	237079
#	251042
#	264387
#	276444
#	286277
#	301826
#	321724
#	336768
#
# Disc length: 4656 seconds
#
# Revision: 1
# Processed by: cddbd v1.4PL0 Copyright (c) Steve Scherf et al.
# Submitted via: audiograbber 1.82.01
#
DISCID=5e122e18
DTITLE=Botafogo - Cambios
DYEAR=1998
DGENRE=
TTITLE0=Sidetracked
TTITLE1=Ser el árbol
TTITLE2=Back door man
TTITLE3=Ewan shuffle
TTITLE4=Sen-Sa-Shum
TTITLE5=Vas a ver
TTITLE6=Aw' some funk
TTITLE7=Corre el riesgo
TTITLE8=Boogie on down
TTITLE9=CND Blues
TTITLE10=The Stumble
TTITLE11=El Carcelero
TTITLE12=Stock Time
TTITLE13=Who's that walkin'
TTITLE14=Mundo de luz
TTITLE15=Take Five
TTITLE16=What a wonderful world
TTITLE17=Con Elvira es otra cosa
TTITLE18=¿Ver para creer o creer para ver?
TTITLE19=Shake your money maker
TTITLE20=Me gusta verte bailar
TTITLE21=Cambios
TTITLE22=Red top
TTITLE23=Sleepwalk
EXTD=
EXTT0=
EXTT1=
EXTT2=
EXTT3=
EXTT4=
EXTT5=
EXTT6=
EXTT7=
EXTT8=
EXTT9=
EXTT10=
EXTT11=
EXTT12=
EXTT13=
EXTT14=
EXTT15=
EXTT16=
EXTT17=
EXTT18=
EXTT19=
EXTT20=
EXTT21=
EXTT22=
EXTT23=
PLAYORDER=
